<svg xmlns="http://www.w3.org/2000/svg" viewBox="0 0 796.49 177.1"><g id="图层_2" data-name="图层 2"><g id="图层_1-2" data-name="图层 1"><path d="M124.72,154.7a55.83,55.83,0,0,1-24.85,17.15A91.58,91.58,0,0,1,69.3,177.1a87.59,87.59,0,0,1-43.17-10.85Q6.54,155.41,0,134.87l32.2-18.43a40.72,40.72,0,0,0,15,18.43q9.91,6.54,23.45,6.53,10,0,16.22-3.85a12.5,12.5,0,0,0,6.18-11.32,13.22,13.22,0,0,0-4.2-10,33.56,33.56,0,0,0-10.5-6.53,185.75,185.75,0,0,0-17.73-5.84A200.7,200.7,0,0,1,33.25,94,49.06,49.06,0,0,1,14.93,79.22q-7.69-9.91-7.7-26,0-17.73,9.22-29.63a55.29,55.29,0,0,1,24-17.74A86.37,86.37,0,0,1,72.33,0q22.41,0,39.21,10.27a46.81,46.81,0,0,1,21.7,29.16L100.57,57.87A33.94,33.94,0,0,0,89,41.53q-7.83-5.82-19-5.83-9.57,0-15.52,4.43a13.69,13.69,0,0,0-5.95,11.44,11.85,11.85,0,0,0,4.09,9.1,31.51,31.51,0,0,0,10.15,6.06Q68.83,69.07,80,72.57a206.24,206.24,0,0,1,28,10.15,51.38,51.38,0,0,1,18.67,15q7.94,10,7.94,26.13Q134.64,142.8,124.72,154.7Z"/><path d="M214,70l35.7-66.73h42.94L232.87,109.2v64.87H193V109.44L130.67,3.27H177.1Z"/><path d="M401.81,116.2l33.36,19.6a54.5,54.5,0,0,1-12.83,20.65,65.67,65.67,0,0,1-22.75,15.05,79.41,79.41,0,0,1-30.45,5.6,83.4,83.4,0,0,1-42.23-11A79.53,79.53,0,0,1,296.57,135q-11.2-20.17-11.2-46.55T296.57,42a79.72,79.72,0,0,1,30.34-31A83.41,83.41,0,0,1,369.14,0a79.6,79.6,0,0,1,30.45,5.6,65.67,65.67,0,0,1,22.75,15.05A54.5,54.5,0,0,1,435.17,41.3L401.81,60.9q-10.5-24.27-33.6-24.27a36.23,36.23,0,0,0-20.65,6.19q-9.22,6.18-14.71,18t-5.48,27.65q0,15.88,5.48,27.77t14.71,18.08a36.16,36.16,0,0,0,20.65,6.19Q391.31,140.47,401.81,116.2Z"/><path d="M571.21,3.27V25.9l-74,112.7h77.23v35.47H441.7V151.44L516.14,38.5h-67.2V3.27Z"/><path d="M738.73,106.92a7,7,0,0,0-5.41,2.25,8.23,8.23,0,0,0-2.09,5.83,7.86,7.86,0,0,0,2.09,5.67,7.16,7.16,0,0,0,5.41,2.16,7,7,0,0,0,5.33-2.21,8,8,0,0,0,2.08-5.7,8.13,8.13,0,0,0-2.08-5.75A6.93,6.93,0,0,0,738.73,106.92Z"/><path d="M738.84,33.49q-3.74,0-5.54,4.5t-1.79,14.08q0,9.41,1.79,14c1.2,3.06,3.05,4.58,5.54,4.58s4.25-1.54,5.42-4.62S746,58.29,746,52.07s-.59-10.87-1.75-14S741.29,33.49,738.84,33.49Z"/><path d="M782.42,1.4H636.56a14.07,14.07,0,0,0-14.07,14.07V161.32a14.07,14.07,0,0,0,14.07,14.08H782.42a14.07,14.07,0,0,0,14.07-14.08V15.47A14.07,14.07,0,0,0,782.42,1.4Zm-89.09,155H678.92V110.59l-15.82,8.74V106l19.07-10.67h11.16Zm9.2-73.85H659V73.31l17.83-20.08A69.08,69.08,0,0,0,683,45.49a10.25,10.25,0,0,0,1.75-5.58,6.88,6.88,0,0,0-1.58-4.67,5.53,5.53,0,0,0-4.41-1.83q-6.35,0-9.17,9.16l-11-6.41a21.52,21.52,0,0,1,8.08-11.74,22.5,22.5,0,0,1,13.41-4.09,21.62,21.62,0,0,1,10.7,2.5,16.49,16.49,0,0,1,6.71,6.79,20.22,20.22,0,0,1,2.25,9.54,19.55,19.55,0,0,1-2.5,9.7,67.44,67.44,0,0,1-8.92,11.45l-8.83,9.92h23Zm56.56,42.57A79.25,79.25,0,0,1,752.47,137L740.06,156.4H724.82L736.4,139q1.25-1.92,3.41-4.83a19.78,19.78,0,0,1-3.91.41,21.25,21.25,0,0,1-10.29-2.41,17,17,0,0,1-6.91-6.83A20.88,20.88,0,0,1,716.24,115a19.44,19.44,0,0,1,3-10.74,20.76,20.76,0,0,1,8.16-7.38,24.89,24.89,0,0,1,22.33.05,20.3,20.3,0,0,1,8.12,7.58,21.36,21.36,0,0,1,3,11.32A24.13,24.13,0,0,1,759.09,125.12Zm-3.8-49.56q-5.79,8.07-16.45,8.08t-16.53-8q-5.87-8-5.87-23.53t5.87-23.57q5.88-8.09,16.53-8.08t16.45,8.08q5.79,8.07,5.79,23.57T755.29,75.56Z"/></g></g></svg>