<?xml version="1.0" encoding="utf-8"?>
<!-- Generator: Adobe Illustrator 24.3.0, SVG Export Plug-In . SVG Version: 6.00 Build 0)  -->
<svg version="1.1" id="图层_1" xmlns="http://www.w3.org/2000/svg" xmlns:xlink="http://www.w3.org/1999/xlink" x="0px" y="0px"
	 viewBox="0 0 796.5 177.1" style="enable-background:new 0 0 796.5 177.1;" xml:space="preserve">
<style type="text/css">
	.st0{fill:#FFFFFF;}
</style>
<g id="图层_2_1_">
	<g id="图层_1-2">
		<path class="st0" d="M124.7,154.7c-6.6,7.9-15.1,13.8-24.8,17.1c-9.8,3.5-20.2,5.3-30.6,5.3c-15.1,0.2-30-3.6-43.2-10.9
			C13.1,159,4.4,148.6,0,134.9l32.2-18.4c3.1,7.5,8.3,13.9,15,18.4c6.6,4.4,14.4,6.5,23.5,6.5c6.7,0,12.1-1.3,16.2-3.9
			c4-2.3,6.4-6.7,6.2-11.3c0.1-3.8-1.4-7.4-4.2-10c-3.1-2.8-6.6-5-10.5-6.5c-5.8-2.2-11.7-4.2-17.7-5.8c-9.3-2.6-18.5-5.9-27.4-9.9
			c-7.2-3.4-13.5-8.4-18.3-14.8c-5.1-6.6-7.7-15.3-7.7-26c0-11.8,3.1-21.7,9.2-29.6c6.2-8,14.5-14.1,24-17.7
			c10.2-3.9,21-5.9,31.9-5.9c14.9,0,28,3.4,39.2,10.3c10.9,6.4,18.7,16.9,21.7,29.2l-32.7,18.4c-2.1-6.5-6.2-12.2-11.6-16.3
			c-5.2-3.9-11.6-5.8-19-5.8c-6.4,0-11.6,1.5-15.5,4.4c-3.8,2.6-6,6.9-6,11.4c0,3.5,1.5,6.8,4.1,9.1c3,2.6,6.4,4.7,10.1,6.1
			c4,1.6,9.8,3.5,17.2,5.8c9.6,2.7,18.9,6.1,28,10.2c7.3,3.5,13.7,8.6,18.7,15c5.3,6.7,7.9,15.4,7.9,26.1
			C134.6,136.5,131.3,146.8,124.7,154.7z"/>
		<path class="st0" d="M214,70l35.7-66.7h42.9l-59.8,105.9v64.9H193v-64.6L130.7,3.3h46.4L214,70z"/>
		<path class="st0" d="M401.8,116.2l33.4,19.6c-2.7,7.8-7.1,14.8-12.8,20.6c-6.4,6.6-14.2,11.7-22.8,15.1c-9.7,3.8-20,5.7-30.5,5.6
			c-14.8,0.1-29.4-3.7-42.2-11c-12.8-7.3-23.3-18.1-30.3-31.1c-7.5-13.4-11.2-29-11.2-46.6s3.7-33.1,11.2-46.4
			c7.1-12.9,17.6-23.7,30.3-31c12.9-7.3,27.4-11.1,42.2-11c10.4-0.1,20.8,1.8,30.5,5.6c8.6,3.4,16.3,8.5,22.8,15
			c5.8,5.8,10.2,12.9,12.8,20.6l-33.4,19.6c-7-16.2-18.2-24.3-33.6-24.3c-7.4-0.1-14.6,2.1-20.6,6.2c-6.1,4.1-11,10.1-14.7,18
			c-3.7,7.9-5.5,17.1-5.5,27.7c0,10.6,1.8,19.8,5.5,27.8c3.7,7.9,8.6,14,14.7,18.1c6.1,4.1,13.3,6.3,20.6,6.2
			C383.6,140.5,394.8,132.4,401.8,116.2z"/>
		<path class="st0" d="M571.2,3.3v22.6l-74,112.7h77.2v35.5H441.7v-22.6l74.4-112.9h-67.2V3.3H571.2z"/>
		<path class="st0" d="M738.7,106.9c-2-0.1-4,0.7-5.4,2.2c-1.4,1.6-2.2,3.7-2.1,5.8c-0.1,2.1,0.7,4.1,2.1,5.7
			c1.4,1.5,3.4,2.2,5.4,2.2c2,0.1,4-0.7,5.3-2.2c1.4-1.6,2.2-3.6,2.1-5.7c0.1-2.1-0.7-4.2-2.1-5.8
			C742.7,107.7,740.7,106.9,738.7,106.9z"/>
		<path class="st0" d="M738.8,33.5c-2.5,0-4.3,1.5-5.5,4.5s-1.8,7.7-1.8,14.1c0,6.3,0.6,10.9,1.8,14c1.2,3.1,3,4.6,5.5,4.6
			s4.2-1.5,5.4-4.6s1.7-7.7,1.7-14s-0.6-10.9-1.8-14S741.3,33.5,738.8,33.5z"/>
		<path class="st0" d="M782.4,1.4H636.6c-7.8,0-14.1,6.3-14.1,14.1c0,0,0,0,0,0v145.9c0,7.8,6.3,14.1,14.1,14.1c0,0,0,0,0,0h145.9
			c7.8,0,14.1-6.3,14.1-14.1c0,0,0,0,0,0V15.5C796.5,7.7,790.2,1.4,782.4,1.4C782.4,1.4,782.4,1.4,782.4,1.4z M693.3,156.4h-14.4
			v-45.8l-15.8,8.7V106l19.1-10.7h11.2V156.4z M702.5,82.5H659v-9.2l17.8-20.1c2.2-2.4,4.3-5,6.2-7.7c1.1-1.7,1.7-3.6,1.8-5.6
			c0.1-1.7-0.5-3.4-1.6-4.7c-1.1-1.2-2.7-1.9-4.4-1.8c-4.2,0-7.3,3.1-9.2,9.2l-11-6.4c1.3-4.7,4.1-8.9,8.1-11.7
			c3.9-2.8,8.6-4.2,13.4-4.1c3.7-0.1,7.4,0.8,10.7,2.5c2.9,1.6,5.2,3.9,6.7,6.8c1.5,2.9,2.3,6.2,2.2,9.5c0,3.4-0.8,6.7-2.5,9.7
			c-2.6,4.1-5.5,8-8.9,11.5l-8.8,9.9h23L702.5,82.5z M759.1,125.1c-1.9,4.1-4.1,8.1-6.6,11.9l-12.4,19.4h-15.2l11.6-17.4
			c0.8-1.3,2-2.9,3.4-4.8c-1.3,0.3-2.6,0.4-3.9,0.4c-3.6,0.1-7.1-0.8-10.3-2.4c-2.9-1.6-5.3-3.9-6.9-6.8c-1.7-3.2-2.5-6.7-2.5-10.3
			c-0.1-3.8,1-7.5,3-10.7c2-3.1,4.8-5.7,8.2-7.4c7-3.5,15.3-3.5,22.3,0.1c3.4,1.7,6.2,4.3,8.1,7.6c2,3.4,3.1,7.3,3,11.3
			C760.9,119,760.3,122.2,759.1,125.1L759.1,125.1z M755.3,75.6c-3.9,5.4-9.3,8.1-16.5,8.1c-7.1,0-12.6-2.7-16.5-8
			c-3.9-5.3-5.9-13.2-5.9-23.5s2-18.2,5.9-23.6c3.9-5.4,9.4-8.1,16.5-8.1c7.1,0,12.6,2.7,16.5,8.1c3.9,5.4,5.8,13.2,5.8,23.6
			C761.1,62.4,759.1,70.3,755.3,75.6z"/>
	</g>
</g>
</svg>
